<svg style="width:inherit;" xmlns="http://www.w3.org/2000/svg" fill="none"><path fill="url(#graphDown_svg__a)" fill-rule="evenodd" d="M14.339 4.323c30.012 63.852 117.75 95.61 110.101 77.086 120.081 0 70.029 77.086 142.441 77.086v25.695H14.339z" clip-rule="evenodd"></path><path stroke="#F1D148" stroke-width="1.91" d="M28.022 27.019c7.18 0 13-5.82 13-13s-5.82-13-13-13-13 5.82-13 13 5.82 13 13 13Z" clip-rule="evenodd"></path><path fill="#F2D148" fill-rule="evenodd" d="M28.217 21.71a7.5 7.5 0 1 0 0-15 7.5 7.5 0 0 0 0 15" clip-rule="evenodd"></path><path stroke="url(#graphDown_svg__b)" stroke-width="7.639" d="M28.339 14.323c30.012 71.852 85.75 76.61 129.101 77.086 92.42 0 59.549 77.086 105.96 77.086"></path><path stroke="#6BCCB9" stroke-width="1.91" d="M260.022 181.019c7.18 0 13-5.82 13-13s-5.82-13-13-13-13 5.82-13 13 5.82 13 13 13Z" clip-rule="evenodd"></path><path fill="#6BCCB9" fill-rule="evenodd" d="M260.239 175.729a7.5 7.5 0 1 0 0-15 7.5 7.5 0 0 0 0 15" clip-rule="evenodd"></path><defs><linearGradient id="graphDown_svg__a" x1="14.339" x2="14.339" y1="14.323" y2="194.19" gradientUnits="userSpaceOnUse"><stop stop-color="#F7D147" stop-opacity="0.1"></stop><stop offset="1" stop-color="#fff" stop-opacity="0.01"></stop></linearGradient><linearGradient id="graphDown_svg__b" x1="-116.161" x2="18.816" y1="91.391" y2="319.949" gradientUnits="userSpaceOnUse"><stop stop-color="#F7D147"></stop><stop offset="0.524" stop-color="#93D054"></stop><stop offset="1" stop-color="#69CCBD"></stop></linearGradient></defs></svg>