<svg xmlns="http://www.w3.org/2000/svg" style="width:inherit;" height="auto" fill="none"><path fill="url(#graphUp_svg__a)" fill-rule="evenodd" d="M273 20c-29.732 71.905-84.947 76.667-127.893 77.143-78.34 0-69.374 77.143-141.107 77.143V181h269z" clip-rule="evenodd"></path><path stroke="#F2D148" stroke-width="1.91" d="M14 186.15c7.18 0 13-5.82 13-13s-5.82-13-13-13-13 5.82-13 13 5.82 13 13 13Z" clip-rule="evenodd"></path><path fill="#F2D148" fill-rule="evenodd" d="M14.217 180.861a7.5 7.5 0 1 0 0-15 7.5 7.5 0 0 0 0 15" clip-rule="evenodd"></path><path stroke="url(#graphUp_svg__b)" stroke-width="7.639" d="M273.069 20.326c-30.012 71.865-85.75 76.624-129.101 77.1-92.42 0-59.548 77.1-131.96 77.1"></path><path stroke="#6BCCB9" stroke-width="1.91" d="M270.022 36.019c7.18 0 13-5.82 13-13s-5.82-13-13-13-13 5.82-13 13 5.82 13 13 13Z" clip-rule="evenodd"></path><path fill="#6BCCB9" fill-rule="evenodd" d="M270.239 30.729a7.5 7.5 0 1 0 0-15 7.5 7.5 0 0 0 0 15" clip-rule="evenodd"></path><defs><linearGradient id="graphUp_svg__a" x1="273" x2="273" y1="1" y2="181" gradientUnits="userSpaceOnUse"><stop stop-color="#6BCCB9" stop-opacity="0.14"></stop><stop offset="1" stop-color="#fff" stop-opacity="0.01"></stop></linearGradient><linearGradient id="graphUp_svg__b" x1="403.569" x2="268.555" y1="79.408" y2="307.986" gradientUnits="userSpaceOnUse"><stop stop-color="#69CCBD"></stop><stop offset="0.38" stop-color="#93D054"></stop><stop offset="1" stop-color="#F7D147"></stop></linearGradient></defs></svg>